<svg xmlns="http://www.w3.org/2000/svg" width="24" height="24" fill="currentColor">
  <path d="M19.14 12.94c.04-.31.06-.63.06-.94s-.02-.63-.06-.94l2.03-1.58a.5.5 0 0 0 .12-.64l-1.92-3.32a.5.5 0 0 0-.61-.22l-2.39.96a7.007 7.007 0 0 0-1.62-.94l-.36-2.54A.5.5 0 0 0 14.5 2h-5a.5.5 0 0 0-.49.42l-.36 2.54c-.59.24-1.14.55-1.62.94l-2.39-.96a.5.5 0 0 0-.61.22L2.72 8.44a.5.5 0 0 0 .12.64l2.03 1.58c-.04.31-.06.63-.06.94s.02.63.06.94l-2.03 1.58a.5.5 0 0 0-.12.64l1.92 3.32c.14.24.42.34.68.22l2.39-.96c.48.39 1.03.7 1.62.94l.36 2.54c.05.27.26.42.49.42h5c.23 0 .44-.15.49-.42l.36-2.54c.59-.24 1.14-.55 1.62-.94l2.39.96c.26.12.54.02.68-.22l1.92-3.32a.5.5 0 0 0-.12-.64l-2.03-1.58zM12 15.5A3.5 3.5 0 1 1 12 8.5a3.5 3.5 0 0 1 0 7z"/>
</svg>